<svg xmlns="http://www.w3.org/2000/svg" viewBox="0 0 22 20"><path d="m.25.25l-.25.5v18.5l.25.5.5.25h20.5l.5-.25.25-.5v-18.5l-.25-.5-.5-.25h-20.75zm.75.75h20v18h-20z" color="#000" fill="#3d7ad7"/><g fill="none"><g stroke="#3d7ad7"><path d="m6 5.5h-3.5v12h13v-3.5"/><path d="m6.5 2.5h13v11h-13z"/></g><g stroke="#a9cbff"><path d="m7.5 4v8.5h11v-8.5"/><path d="m6 6.5h-2.5v10h11v-2.5"/></g><g stroke="#000"><path d="m5.5 3v12" opacity=".3"/><path d="m6 14.5h13" opacity=".3"/></g><path d="m7 3.5h12" stroke="#3d7ad7"/></g><path d="m8.02 7.997v-3.988h4.99 4.99v3.988 3.988h-4.99-4.99v-3.988z" fill="#73a2eb" stroke="#73a2eb" fill-opacity=".451" stroke-width=".041"/></svg>