<svg xmlns="http://www.w3.org/2000/svg" viewBox="0 0 32 32"><path d="m27.941 21.947c0 .008.004.012.004.018 0 0-.002.009-.002.01.001 0 .002.008.002.01 0 .335-.256.607-.572.607.008-.001-5.09-.019-5.09-.019-.316 0-.572-.272-.572-.607 0-.336.256-.607.572-.607h4.538c.011-.203.031-.402.031-.607 0-6.372-4.861-11.537-10.857-11.537-5.996 0-10.857 5.166-10.857 11.537 0 .205.02.404.03.607h4.537c.316 0 .572.271.572.607 0 .335-.256.607-.572.607 0 0-5.097.019-5.09.019-.316 0-.572-.272-.572-.607 0-.009.002-.009.002-.01 0-.008-.002-.008-.002-.01 0-.008.004-.012.004-.017-.035-.395-.057-.793-.057-1.197 0-7.04 5.372-12.752 12-12.752 6.628 0 12 5.709 12 12.752 0 .404-.023.802-.057 1.197zm-15.644-7.191c.224-.131.494-.087.679.081l-.028-.05c5.01 3.895 6.04 5.691 6.06 5.725.819 1.431.332 3.262-1.085 4.087-1.418.826-3.23.336-4.049-1.096-.02-.032-1.043-1.831-1.88-8.162l.029.049c-.051-.246.047-.504.271-.634m2.608 8.149c.317.553.908.897 1.542.897.31 0 .616-.083.887-.241.412-.24.706-.626.829-1.09.124-.464.06-.947-.173-1.355-.01-.015-.898-1.449-4.607-4.462.732 4.745 1.515 6.236 1.523 6.251" fill="#fff" fill-rule="evenodd"/></svg>